<mxfile host="app.diagrams.net" agent="Mozilla/5.0 (Macintosh; Intel Mac OS X 10_15_7) AppleWebKit/537.36 (KHTML, like Gecko) Chrome/132.0.0.0 Safari/537.36" version="26.0.6">
  <diagram name="Page-1" id="uk305haD_4TDLD7_V1hh">
    <mxGraphModel dx="1181" dy="696" grid="1" gridSize="10" guides="1" tooltips="1" connect="1" arrows="1" fold="1" page="1" pageScale="1" pageWidth="850" pageHeight="1100" math="0" shadow="0">
      <root>
        <mxCell id="0" />
        <mxCell id="1" parent="0" />
        <mxCell id="QXRSI1tyrrA4E2Za_0X8-2" value="&lt;div&gt;&lt;br&gt;&lt;/div&gt;" style="rounded=0;whiteSpace=wrap;html=1;" vertex="1" parent="1">
          <mxGeometry x="152" y="80" width="250" height="450" as="geometry" />
        </mxCell>
        <mxCell id="QXRSI1tyrrA4E2Za_0X8-3" value="&lt;font style=&quot;font-size: 15px;&quot;&gt;95/130g&lt;/font&gt;" style="ellipse;whiteSpace=wrap;html=1;aspect=fixed;" vertex="1" parent="1">
          <mxGeometry x="235" y="123" width="80" height="80" as="geometry" />
        </mxCell>
        <mxCell id="QXRSI1tyrrA4E2Za_0X8-4" value="Steps: 8,444&lt;div&gt;1,666 remaining of 10k&lt;/div&gt;" style="text;html=1;align=center;verticalAlign=middle;whiteSpace=wrap;rounded=0;" vertex="1" parent="1">
          <mxGeometry x="202.5" y="223" width="145" height="30" as="geometry" />
        </mxCell>
        <mxCell id="QXRSI1tyrrA4E2Za_0X8-6" value="Log Protein" style="rounded=0;whiteSpace=wrap;html=1;" vertex="1" parent="1">
          <mxGeometry x="200" y="361" width="160" height="40" as="geometry" />
        </mxCell>
        <mxCell id="QXRSI1tyrrA4E2Za_0X8-7" value="Workouts" style="rounded=0;whiteSpace=wrap;html=1;" vertex="1" parent="1">
          <mxGeometry x="200" y="462" width="160" height="40" as="geometry" />
        </mxCell>
        <mxCell id="QXRSI1tyrrA4E2Za_0X8-8" value="Track Movement" style="rounded=0;whiteSpace=wrap;html=1;" vertex="1" parent="1">
          <mxGeometry x="200" y="412" width="160" height="40" as="geometry" />
        </mxCell>
        <mxCell id="QXRSI1tyrrA4E2Za_0X8-9" value="Today&#39;s Activities:&lt;div&gt;4m Run&lt;/div&gt;&lt;div&gt;45min Strength&lt;/div&gt;&lt;div&gt;15min Mobility&lt;/div&gt;" style="text;html=1;align=center;verticalAlign=middle;whiteSpace=wrap;rounded=0;" vertex="1" parent="1">
          <mxGeometry x="204.5" y="270" width="145" height="70" as="geometry" />
        </mxCell>
        <mxCell id="QXRSI1tyrrA4E2Za_0X8-10" value="Add an easy way to track protein intake&lt;div&gt;&lt;br&gt;&lt;/div&gt;&lt;div&gt;&lt;br&gt;&lt;div&gt;home page shows total protein, total steps, any logged activities along with links to add protein, track movement and view workouts&lt;/div&gt;&lt;/div&gt;&lt;div&gt;&lt;br&gt;&lt;/div&gt;&lt;div&gt;&lt;br&gt;&lt;/div&gt;&lt;div&gt;Settings icon to set protein target? or that could be in the protein page&lt;/div&gt;&lt;div&gt;&lt;br&gt;&lt;/div&gt;&lt;div&gt;&lt;br&gt;&lt;/div&gt;&lt;div&gt;Incorporate the renpho api to track body weight to average protein goal&lt;br&gt;https://www.tryvital.com/wearables-api/renpho&lt;/div&gt;&lt;div&gt;&lt;br&gt;&lt;/div&gt;&lt;div&gt;&lt;br&gt;&lt;/div&gt;&lt;div&gt;connect to garmin to get steps and recent logged activities for the day&lt;/div&gt;&lt;div&gt;&lt;br&gt;&lt;/div&gt;" style="text;html=1;align=center;verticalAlign=middle;whiteSpace=wrap;rounded=0;" vertex="1" parent="1">
          <mxGeometry x="460" y="80" width="230" height="390" as="geometry" />
        </mxCell>
        <mxCell id="QXRSI1tyrrA4E2Za_0X8-11" value="" style="verticalLabelPosition=bottom;verticalAlign=top;html=1;shape=mxgraph.basic.6_point_star" vertex="1" parent="1">
          <mxGeometry x="355.5" y="95" width="32" height="30" as="geometry" />
        </mxCell>
      </root>
    </mxGraphModel>
  </diagram>
</mxfile>
